<svg width="49px" height="40px" viewBox="0 0 49 40" version="1.1" xmlns="http://www.w3.org/2000/svg" xmlns:xlink="http://www.w3.org/1999/xlink">

   <g id="Symbols" stroke="none" stroke-width="1" fill="none" fill-rule="evenodd">

       <g id="round-w" fill="#95813B">

           <g id="Combined-Shape">

               <path d="M0.482822985,3.99680289e-15 C1.98928123,13.1314553 6.8485176,22.745098 12.6102941,22.745098 C18.3720706,22.745098 23.231307,13.1314553 24.7377652,-1.11022302e-14 C25.052219,2.74102211 25.2205882,5.63531947 25.2205882,8.62745098 C25.2205882,25.9540314 19.5747672,40 12.6102941,40 C5.64582099,40 0,25.9540314 0,8.62745098 C0,5.63531947 0.168369237,2.74102211 0.482822985,1.75246484e-11 Z"></path>

               <path d="M24.2622348,3.99680289e-15 C25.768693,13.1314553 30.6279294,22.745098 36.3897059,22.745098 C42.1514824,22.745098 47.0107188,13.1314553 48.517177,-4.13002965e-14 C48.8316308,2.74102211 49,5.63531947 49,8.62745098 C49,25.9540314 43.354179,40 36.3897059,40 C29.4252328,40 23.7794118,25.9540314 23.7794118,8.62745098 C23.7794118,5.63531947 23.947781,2.74102211 24.2622348,1.73727699e-11 Z"></path>

           </g>

       </g>

   </g>

</svg>